<svg width="675" height="717" viewBox="0 0 675 717" fill="none" xmlns="http://www.w3.org/2000/svg">
<rect width="675" height="717" rx="337.5" fill="black"/>
<g clip-path="url(#clip0_3573_66)">
<path d="M637 58H37V658H637V58Z" fill="black"/>
<path d="M637 58H37V658H637V58Z" fill="black"/>
<path d="M637 58H37V658H637V58Z" fill="black"/>
<mask id="mask0_3573_66" style="mask-type:luminance" maskUnits="userSpaceOnUse" x="153" y="174" width="368" height="368">
<path d="M153.271 174.271H520.271V541.271H153.271V174.271Z" fill="white"/>
</mask>
<g mask="url(#mask0_3573_66)">
<path d="M516.521 432.927L465.224 395.724V311.896C465.219 310.396 465.146 308.901 464.995 307.406C464.844 305.911 464.625 304.427 464.328 302.953C464.031 301.484 463.667 300.026 463.229 298.589C462.792 297.156 462.287 295.745 461.708 294.354C461.136 292.969 460.49 291.615 459.781 290.292C459.073 288.964 458.302 287.677 457.469 286.432C456.63 285.182 455.74 283.979 454.787 282.818C453.833 281.656 452.823 280.547 451.761 279.484C450.703 278.422 449.589 277.417 448.427 276.464C447.266 275.51 446.063 274.615 444.818 273.781C443.568 272.948 442.281 272.172 440.958 271.464C439.636 270.755 438.276 270.115 436.891 269.536C435.505 268.964 434.094 268.453 432.656 268.016C431.219 267.578 429.766 267.214 428.292 266.917C426.818 266.625 425.339 266.401 423.844 266.25C422.349 266.104 420.849 266.026 419.349 266.021C414.37 266.042 409.521 266.854 404.807 268.469C400.099 270.083 395.771 272.411 391.823 275.448V256.849C391.823 227.823 369.136 174.271 336.771 174.271C304.412 174.271 281.724 227.823 281.724 256.849V275.448C277.776 272.411 273.448 270.083 268.735 268.469C264.026 266.854 259.177 266.042 254.198 266.021C252.698 266.026 251.198 266.104 249.703 266.25C248.208 266.401 246.729 266.625 245.255 266.917C243.781 267.214 242.328 267.578 240.891 268.016C239.453 268.453 238.042 268.964 236.656 269.536C235.271 270.115 233.912 270.755 232.589 271.464C231.266 272.172 229.979 272.948 228.729 273.781C227.485 274.615 226.276 275.51 225.12 276.464C223.958 277.417 222.844 278.422 221.787 279.484C220.724 280.547 219.714 281.656 218.761 282.818C217.807 283.979 216.917 285.182 216.078 286.432C215.245 287.677 214.474 288.964 213.766 290.292C213.057 291.615 212.412 292.969 211.839 294.354C211.261 295.745 210.755 297.156 210.318 298.589C209.88 300.026 209.516 301.484 209.219 302.953C208.922 304.427 208.703 305.911 208.552 307.406C208.401 308.901 208.328 310.396 208.323 311.896V395.724L157.026 432.927C155.854 433.802 154.938 434.891 154.276 436.198C153.62 437.5 153.281 438.885 153.271 440.349V495.396C153.271 496 153.333 496.599 153.448 497.188C153.568 497.781 153.74 498.354 153.974 498.911C154.203 499.464 154.485 499.995 154.818 500.495C155.156 500.995 155.537 501.458 155.958 501.885C156.386 502.313 156.849 502.693 157.349 503.026C157.854 503.359 158.38 503.646 158.938 503.875C159.495 504.104 160.068 504.281 160.656 504.396C161.25 504.516 161.844 504.573 162.448 504.573H208.323V532.099C208.323 532.703 208.38 533.297 208.5 533.891C208.615 534.479 208.792 535.052 209.021 535.609C209.25 536.167 209.537 536.693 209.87 537.198C210.203 537.698 210.583 538.161 211.011 538.589C211.438 539.01 211.901 539.391 212.401 539.729C212.901 540.063 213.432 540.344 213.99 540.573C214.542 540.807 215.12 540.979 215.708 541.099C216.297 541.214 216.896 541.271 217.5 541.271H456.047C456.651 541.271 457.245 541.214 457.839 541.099C458.427 540.979 459.005 540.807 459.557 540.573C460.115 540.344 460.646 540.063 461.146 539.729C461.646 539.391 462.11 539.01 462.537 538.589C462.964 538.161 463.344 537.698 463.677 537.198C464.011 536.693 464.297 536.167 464.526 535.609C464.755 535.052 464.927 534.479 465.047 533.891C465.167 533.297 465.224 532.703 465.224 532.099V504.573H511.099C511.703 504.573 512.297 504.516 512.891 504.396C513.479 504.281 514.052 504.104 514.61 503.875C515.167 503.646 515.693 503.359 516.198 503.026C516.698 502.693 517.162 502.313 517.589 501.885C518.011 501.458 518.391 500.995 518.729 500.495C519.063 499.995 519.344 499.464 519.573 498.911C519.807 498.354 519.979 497.781 520.099 497.188C520.214 496.599 520.271 496 520.271 495.396V440.349C520.266 438.885 519.927 437.5 519.271 436.198C518.61 434.891 517.693 433.802 516.521 432.927ZM419.349 284.375C420.25 284.375 421.151 284.417 422.047 284.505C422.943 284.594 423.833 284.724 424.719 284.901C425.604 285.078 426.474 285.297 427.339 285.557C428.203 285.818 429.047 286.125 429.88 286.469C430.714 286.813 431.526 287.198 432.323 287.625C433.12 288.047 433.891 288.51 434.641 289.01C435.391 289.51 436.115 290.047 436.813 290.62C437.505 291.193 438.172 291.797 438.813 292.438C439.448 293.073 440.052 293.74 440.625 294.438C441.198 295.135 441.735 295.854 442.235 296.604C442.735 297.354 443.198 298.13 443.625 298.922C444.047 299.719 444.432 300.531 444.776 301.365C445.125 302.198 445.427 303.047 445.688 303.906C445.948 304.771 446.167 305.646 446.344 306.526C446.521 307.411 446.651 308.302 446.74 309.198C446.828 310.099 446.875 310.995 446.875 311.896V382.38L391.823 342.427V311.896C391.823 310.995 391.87 310.099 391.958 309.198C392.042 308.302 392.177 307.411 392.354 306.526C392.526 305.646 392.745 304.771 393.011 303.906C393.271 303.047 393.573 302.198 393.917 301.365C394.266 300.531 394.651 299.719 395.073 298.922C395.5 298.13 395.964 297.354 396.464 296.604C396.964 295.854 397.5 295.135 398.073 294.438C398.641 293.74 399.25 293.073 399.886 292.438C400.521 291.797 401.188 291.193 401.886 290.62C402.584 290.047 403.307 289.51 404.057 289.01C404.807 288.51 405.578 288.047 406.375 287.625C407.167 287.198 407.985 286.813 408.813 286.469C409.646 286.125 410.495 285.818 411.36 285.557C412.219 285.297 413.094 285.078 413.979 284.901C414.865 284.724 415.755 284.594 416.651 284.505C417.547 284.417 418.448 284.375 419.349 284.375ZM300.073 467.875V256.849C300.224 251.906 300.917 247.042 302.156 242.25C313.401 245.938 324.943 247.745 336.771 247.672C348.604 247.745 360.146 245.938 371.391 242.25C372.63 247.042 373.323 251.906 373.474 256.849V467.875H300.073ZM336.771 192.625C347.365 192.625 358.292 207.552 365.464 224.318C347.615 230.156 325.932 230.156 308.078 224.318C315.255 207.552 326.182 192.625 336.771 192.625ZM226.672 311.896C226.672 310.995 226.719 310.099 226.807 309.198C226.896 308.302 227.026 307.411 227.203 306.526C227.38 305.646 227.599 304.771 227.86 303.906C228.12 303.047 228.422 302.198 228.771 301.365C229.115 300.531 229.5 299.719 229.922 298.922C230.349 298.13 230.813 297.354 231.313 296.604C231.813 295.854 232.349 295.135 232.922 294.438C233.495 293.74 234.099 293.073 234.735 292.438C235.375 291.797 236.042 291.193 236.735 290.62C237.432 290.047 238.156 289.51 238.906 289.01C239.656 288.51 240.427 288.047 241.224 287.625C242.016 287.198 242.833 286.813 243.667 286.469C244.5 286.125 245.344 285.818 246.208 285.557C247.073 285.297 247.943 285.078 248.828 284.901C249.714 284.724 250.604 284.594 251.5 284.505C252.396 284.417 253.297 284.375 254.198 284.375C255.099 284.375 256 284.417 256.896 284.505C257.792 284.594 258.682 284.724 259.568 284.901C260.453 285.078 261.328 285.297 262.188 285.557C263.052 285.818 263.901 286.125 264.729 286.469C265.563 286.813 266.38 287.198 267.172 287.625C267.969 288.047 268.74 288.51 269.49 289.01C270.24 289.51 270.964 290.047 271.662 290.62C272.36 291.193 273.026 291.797 273.662 292.438C274.297 293.073 274.901 293.74 275.474 294.438C276.047 295.135 276.583 295.854 277.083 296.604C277.583 297.354 278.047 298.13 278.474 298.922C278.896 299.719 279.281 300.531 279.63 301.365C279.974 302.198 280.276 303.047 280.537 303.906C280.802 304.771 281.021 305.646 281.193 306.526C281.37 307.411 281.5 308.302 281.589 309.198C281.677 310.099 281.724 310.995 281.724 311.896V342.427L226.672 382.38V311.896ZM171.625 445.021L281.724 365.115V469.542C279.802 470.229 277.979 471.115 276.255 472.203C274.531 473.297 272.948 474.563 271.505 476.005C270.063 477.448 268.797 479.031 267.703 480.755C266.615 482.479 265.729 484.302 265.042 486.224H171.625V445.021ZM226.672 504.573H263.375V522.922H226.672V504.573ZM281.724 495.396C281.724 494.797 281.781 494.198 281.901 493.609C282.016 493.016 282.193 492.443 282.422 491.885C282.651 491.328 282.932 490.802 283.271 490.302C283.604 489.802 283.985 489.339 284.412 488.911C284.839 488.484 285.302 488.104 285.802 487.771C286.302 487.432 286.828 487.151 287.386 486.922C287.943 486.693 288.516 486.516 289.11 486.401C289.698 486.281 290.297 486.224 290.896 486.224H382.646C383.25 486.224 383.849 486.281 384.438 486.401C385.031 486.516 385.604 486.693 386.162 486.922C386.714 487.151 387.245 487.432 387.745 487.771C388.245 488.104 388.709 488.484 389.136 488.911C389.563 489.339 389.943 489.802 390.276 490.302C390.61 490.802 390.896 491.328 391.125 491.885C391.354 492.443 391.531 493.016 391.646 493.609C391.766 494.198 391.823 494.797 391.823 495.396V522.922H281.724V495.396ZM446.875 522.922H410.172V504.573H446.875V522.922ZM501.922 486.224H408.505C407.818 484.302 406.932 482.479 405.844 480.755C404.75 479.031 403.485 477.448 402.042 476.005C400.599 474.563 399.016 473.297 397.292 472.203C395.568 471.115 393.745 470.229 391.823 469.542V365.115L501.922 445.021V486.224Z" fill="white"/>
</g>
<path d="M345.948 412.823H327.599C326.995 412.823 326.401 412.88 325.807 413C325.219 413.115 324.646 413.292 324.089 413.521C323.531 413.75 323 414.037 322.5 414.37C322 414.703 321.536 415.083 321.109 415.51C320.682 415.938 320.302 416.401 319.969 416.901C319.635 417.401 319.354 417.932 319.12 418.49C318.891 419.042 318.719 419.62 318.599 420.208C318.484 420.797 318.422 421.396 318.422 422C318.422 422.599 318.484 423.198 318.599 423.787C318.719 424.38 318.891 424.953 319.12 425.51C319.354 426.068 319.635 426.594 319.969 427.094C320.302 427.599 320.682 428.063 321.109 428.484C321.536 428.912 322 429.292 322.5 429.625C323 429.964 323.531 430.245 324.089 430.474C324.646 430.703 325.219 430.88 325.807 430.995C326.401 431.115 326.995 431.172 327.599 431.172H345.948C346.552 431.172 347.146 431.115 347.74 430.995C348.328 430.88 348.901 430.703 349.458 430.474C350.016 430.245 350.547 429.964 351.047 429.625C351.547 429.292 352.01 428.912 352.438 428.484C352.859 428.063 353.245 427.599 353.578 427.094C353.911 426.594 354.193 426.068 354.427 425.51C354.656 424.953 354.828 424.38 354.948 423.787C355.062 423.198 355.125 422.599 355.125 422C355.125 421.396 355.062 420.797 354.948 420.208C354.828 419.62 354.656 419.042 354.427 418.49C354.193 417.932 353.911 417.401 353.578 416.901C353.245 416.401 352.859 415.938 352.438 415.51C352.01 415.083 351.547 414.703 351.047 414.37C350.547 414.037 350.016 413.75 349.458 413.521C348.901 413.292 348.328 413.115 347.74 413C347.146 412.88 346.552 412.823 345.948 412.823Z" fill="black"/>
<path d="M345.948 376.125H327.599C326.995 376.125 326.401 376.182 325.807 376.302C325.219 376.417 324.646 376.589 324.089 376.823C323.531 377.052 323 377.333 322.5 377.672C322 378.005 321.536 378.385 321.109 378.812C320.682 379.234 320.302 379.698 319.969 380.203C319.635 380.703 319.354 381.229 319.12 381.786C318.891 382.344 318.719 382.917 318.599 383.51C318.484 384.099 318.422 384.698 318.422 385.297C318.422 385.901 318.484 386.495 318.599 387.089C318.719 387.677 318.891 388.255 319.12 388.807C319.354 389.365 319.635 389.896 319.969 390.396C320.302 390.896 320.682 391.359 321.109 391.786C321.536 392.214 322 392.594 322.5 392.927C323 393.26 323.531 393.547 324.089 393.776C324.646 394.005 325.219 394.177 325.807 394.297C326.401 394.417 326.995 394.474 327.599 394.474H345.948C346.552 394.474 347.146 394.417 347.74 394.297C348.328 394.177 348.901 394.005 349.458 393.776C350.016 393.547 350.547 393.26 351.047 392.927C351.547 392.594 352.01 392.214 352.438 391.786C352.859 391.359 353.245 390.896 353.578 390.396C353.911 389.896 354.193 389.365 354.427 388.807C354.656 388.255 354.828 387.677 354.948 387.089C355.062 386.495 355.125 385.901 355.125 385.297C355.125 384.698 355.062 384.099 354.948 383.51C354.828 382.917 354.656 382.344 354.427 381.786C354.193 381.229 353.911 380.703 353.578 380.203C353.245 379.698 352.859 379.234 352.438 378.812C352.01 378.385 351.547 378.005 351.047 377.672C350.547 377.333 350.016 377.052 349.458 376.823C348.901 376.589 348.328 376.417 347.74 376.302C347.146 376.182 346.552 376.125 345.948 376.125Z" fill="black"/>
</g>
<defs>
<clipPath id="clip0_3573_66">
<rect width="500" height="500" fill="white" transform="translate(87 108)"/>
</clipPath>
</defs>
</svg>
